PathFileType	4	(X/Y/Z)	/Users/niels/Desktop/University/Third Semester/Perception and Action/Exam/Gymnastics Motion Tracking/Code for Gym Tracking/Analyzed Data/Webcam_Backflip/id2_2_pure_Sports2D/id2_2_pure_Sports2D_px_person00.trc
DataRate	CameraRate	NumFrames	NumMarkers	Units	OrigDataRate	OrigDataStartFrame	OrigNumFrames
29.87551867219917	29.87551867219917	8	22	m	29.87551867219917	30	241
Frame#	Time	Hip			RHip			RKnee			RAnkle			RBigToe			RSmallToe			RHeel			LHip			LKnee			LAnkle			LBigToe			LSmallToe			LHeel			Neck			Head			Nose			RShoulder			RElbow			RWrist			LShoulder			LElbow			LWrist		
		X1	Y1	Z1	X2	Y2	Z2	X3	Y3	Z3	X4	Y4	Z4	X5	Y5	Z5	X6	Y6	Z6	X7	Y7	Z7	X8	Y8	Z8	X9	Y9	Z9	X10	Y10	Z10	X11	Y11	Z11	X12	Y12	Z12	X13	Y13	Z13	X14	Y14	Z14	X15	Y15	Z15	X16	Y16	Z16	X17	Y17	Z17	X18	Y18	Z18	X19	Y19	Z19	X20	Y20	Z20	X21	Y21	Z21	X22	Y22	Z22
30	1.0041666666666667	0.9542486717246241	-0.5630133352770418	0.0	0.9550200250387213	-0.5641582484121445	0.0	0.9586603463276717	-0.6792339964937982	0.0	0.9376712826766941	-0.7974688702809074	0.0	0.9697547933308123	-0.8159121835806955	0.0	0.9593887873031546	-0.8208392088011347	0.0	0.9295800843189315	-0.8171043397624722	0.0	0.957829257610489	-0.5638712846730137	0.0	0.9606128249352739	-0.6779179043244321	0.0	0.9465927841267539	-0.7891261143794797	0.0	0.9827484573478791	-0.8080223207776486	0.0	0.9809907592484771	-0.8023470281267041	0.0	0.933596118597521	-0.804330562937527	0.0	0.9557930787461345	-0.4074545632960069	0.0	0.969541545000497	-0.33041369048388936	0.0	0.9752284572928218	-0.3697415789147416	0.0	0.9478299342975192	-0.4100926199055616	0.0	0.9536547540624893	-0.3277034823016211	0.0	0.9663262665978885	-0.263722256627809	0.0	0.9537565078423244	-0.4119476974387854	0.0	0.9653600365090771	-0.335381342719473	0.0	0.9722773713663345	-0.27357894839096386	0.0
31	1.037638888888889	0.9553861879843383	-0.5627658468142677	0.0	0.9561745853212004	-0.563862812321613	0.0	0.960238197203854	-0.6783986807273679	0.0	0.9381540069068839	-0.79656874381398	0.0	0.9699522719685093	-0.8155742677875499	0.0	0.9596906306800304	-0.8203781502195836	0.0	0.9296638589534141	-0.8164546916879611	0.0	0.9590893158830665	-0.563431618993556	0.0	0.9620266905001109	-0.6769654339398029	0.0	0.9470094549158791	-0.7881120484808815	0.0	0.9831899820437942	-0.8078269124964739	0.0	0.9810933875203863	-0.8021040749435026	0.0	0.933550992831663	-0.8028807548361169	0.0	0.9561088007345089	-0.4069745459783351	0.0	0.9705575534595791	-0.3302730079750784	0.0	0.9758056182857413	-0.3694936925260973	0.0	0.9482631872769433	-0.4096596186264931	0.0	0.954022135655308	-0.3269731245318785	0.0	0.9667869655756983	-0.26306535805704995	0.0	0.9543817651964195	-0.4114161094517856	0.0	0.965489644255053	-0.3347373239430753	0.0	0.9726058690960255	-0.272997247795005	0.0
32	1.0711111111111111	0.9565798482270644	-0.5625167424427803	0.0	0.9572603143989934	-0.5636633150635064	0.0	0.9620531249121562	-0.6775587605259288	0.0	0.9386515401620638	-0.7954644911032303	0.0	0.970009670002127	-0.8150077081911887	0.0	0.95982428856942	-0.8197957325076242	0.0	0.9296706118513821	-0.8154374198822493	0.0	0.9603868297569227	-0.5628921017001721	0.0	0.9637131285708468	-0.6760455454485408	0.0	0.9475039648622456	-0.7867413519637729	0.0	0.9837713709267059	-0.8072061068000647	0.0	0.9814302298428218	-0.8014934419320897	0.0	0.9336162290628274	-0.8010594941634167	0.0	0.9564502645124262	-0.40634195878994134	0.0	0.9716568932015138	-0.3300255043392964	0.0	0.9763447698808181	-0.3691812387755998	0.0	0.948534424383133	-0.4090793950776459	0.0	0.9543254515910399	-0.326048895756177	0.0	0.9670987143947716	-0.26206759924614015	0.0	0.954905491084654	-0.4107860154086185	0.0	0.9657020057164748	-0.3338845636729115	0.0	0.9728965892704443	-0.27206867565328047	0.0
33	1.1045833333333333	0.9577371672513161	-0.5622839080149535	0.0	0.9582847290689053	-0.5635608344191713	0.0	0.9640280615130516	-0.6767001108721319	0.0	0.9391986404136669	-0.7942336447485688	0.0	0.9699957553486926	-0.814251048415201	0.0	0.9598796896835268	-0.8190918876745711	0.0	0.929782083843528	-0.8141033946859827	0.0	0.9616358702318201	-0.5623507176475739	0.0	0.9654860125927928	-0.675145500478837	0.0	0.94799071227336	-0.7851590629383944	0.0	0.9843028836576145	-0.8062100944340861	0.0	0.9817952389078467	-0.800594441942667	0.0	0.9337646528079163	-0.7990290084119944	0.0	0.9568061280146646	-0.4055927752403819	0.0	0.9726366807944393	-0.32962679345587637	0.0	0.9768328959873225	-0.3687539438738009	0.0	0.9487097300707138	-0.4083838171179271	0.0	0.9546006634076623	-0.3251354714899674	0.0	0.9672810551967499	-0.2610504831604373	0.0	0.9553210153193541	-0.41012465093414546	0.0	0.9659835926188964	-0.33314511885569076	0.0	0.9730714939391049	-0.27117395523508503	0.0
34	1.1380555555555556	0.958796139020089	-0.5620944615758174	0.0	0.959281871496279	-0.5634930065839522	0.0	0.9660734664300885	-0.6758542177258088	0.0	0.9398062640351263	-0.7929955189793371	0.0	0.9700041281985412	-0.8133577543596148	0.0	0.9598884713802077	-0.8183024115315881	0.0	0.9300608398010517	-0.8125919662450815	0.0	0.9627747123708739	-0.5618721436066054	0.0	0.967135300828352	-0.6742868114201466	0.0	0.9484321424877687	-0.7835396352234052	0.0	0.9846660087861457	-0.804967892235611	0.0	0.98207017137833	-0.7995569714464358	0.0	0.9340058646618863	-0.7969991223044728	0.0	0.9571667798647515	-0.40483316633960037	0.0	0.9734227909223043	-0.32916373248666136	0.0	0.9773074943266707	-0.3682801241289752	0.0	0.948818262659292	-0.407696858867625	0.0	0.954827589807076	-0.32445207677193183	0.0	0.9673451435538049	-0.260365278031922	0.0	0.9556781978213137	-0.40951141104035316	0.0	0.9663128490546032	-0.3327239810253193	0.0	0.973098249970725	-0.27065002290590684	0.0
35	1.1715277777777777	0.9597423177829543	-0.5619669205811618	0.0	0.9602534546776587	-0.5634161188600759	0.0	0.9680538857688349	-0.6750619658050435	0.0	0.9404194169741086	-0.7918733136821753	0.0	0.9700445106878108	-0.8124186700774753	0.0	0.9598231091974743	-0.8174906137818121	0.0	0.9304352480921859	-0.8110641065844204	0.0	0.9637904911593341	-0.5614989602566921	0.0	0.9685088228338402	-0.6735429850275958	0.0	0.9488111172670326	-0.7820370140339216	0.0	0.984810205267144	-0.8036760406107001	0.0	0.9821821286254934	-0.798524815563557	0.0	0.9343223664277113	-0.7951629198924994	0.0	0.9575421129742702	-0.40420282752653086	0.0	0.974097215706664	-0.32872720472124184	0.0	0.9778485043099155	-0.36787523070055284	0.0	0.9488759083492645	-0.4071637332078635	0.0	0.9550095001478552	-0.3241404345432372	0.0	0.9673188391593712	-0.2601871757797691	0.0	0.9560392565510636	-0.4090110590180412	0.0	0.9666472506753315	-0.33265666326355137	0.0	0.9730201230210839	-0.2706105278936432	0.0
36	1.205	0.9605887413211562	-0.5618767995808612	0.0	0.9611580432398882	-0.5633227634145999	0.0	0.9697835399733234	-0.6743363176619884	0.0	0.9409233182514016	-0.7909458287176752	0.0	0.9699926511930682	-0.8115348877888431	0.0	0.9596250547806867	-0.816700935700128	0.0	0.9307942361746379	-0.8096409467890598	0.0	0.9646598919980429	-0.5612433933074243	0.0	0.9695554059297495	-0.6729569765080262	0.0	0.9490663121911596	-0.7807609242268907	0.0	0.9847279232568854	-0.8024914672540523	0.0	0.9820517806064263	-0.7975690099083865	0.0	0.9346263953241128	-0.79361901507584	0.0	0.9579492319813324	-0.40382228466723025	0.0	0.9748169932272065	-0.32835821433943996	0.0	0.9785041584230707	-0.36762335452456396	0.0	0.9489220918912812	-0.40688281938730614	0.0	0.9552092304650762	-0.3242024275092401	0.0	0.9672786734513616	-0.260444226448037	0.0	0.9564174034171035	-0.4086675426190682	0.0	0.9669379437283975	-0.3328654065905069	0.0	0.972920995299175	-0.2709143796625822	0.0
37	1.2384722222222222	0.9613604423155261	-0.5617949836571625	0.0	0.9619640670582572	-0.5632235112740491	0.0	0.9710928865715822	-0.6736853825404948	0.0	0.9412308556030561	-0.7902601086988587	0.0	0.9697403950187355	-0.8108080591999225	0.0	0.9593049326550667	-0.8159747582860095	0.0	0.9310764614161205	-0.8084055977711896	0.0	0.9653221707540436	-0.5610975930641269	0.0	0.9703038030163831	-0.672508003766457	0.0	0.9490974602412494	-0.7797907868567316	0.0	0.9844545310030451	-0.8015149680253577	0.0	0.981652032624828	-0.7967501374242579	0.0	0.9347862875246241	-0.792414924076455	0.0	0.9583613685176066	-0.4037406233747111	0.0	0.9756891534564661	-0.3281002032480686	0.0	0.9792424465162648	-0.36755355967809783	0.0	0.9490045268037821	-0.40688226045950926	0.0	0.9555066231545466	-0.3245361605295518	0.0	0.9673361427495057	-0.2609392540099812	0.0	0.9567748803814949	-0.40850153032415504	0.0	0.9671779386818905	-0.3332236608192571	0.0	0.9728712864184383	-0.2713094598700573	0.0
